<?xml version="1.0" encoding="UTF-8" standalone="no"?>
<!DOCTYPE svg PUBLIC "-//W3C//DTD SVG 1.1//EN"
 "http://www.w3.org/Graphics/SVG/1.1/DTD/svg11.dtd">
<!-- Generated by graphviz version 2.43.0 (0)
 -->
<!-- Title: %3 Pages: 1 -->
<svg width="777pt" height="519pt"
 viewBox="0.00 0.00 777.00 519.00" xmlns="http://www.w3.org/2000/svg" xmlns:xlink="http://www.w3.org/1999/xlink">
<g id="graph0" class="graph" transform="scale(1 1) rotate(0) translate(4 515)">
<title>%3</title>
<polygon fill="white" stroke="transparent" points="-4,4 -4,-515 773,-515 773,4 -4,4"/>
<!-- ESP8266 -->
<g id="node1" class="node">
<title>ESP8266</title>
<polygon fill="white" stroke="black" points="0,-27.5 0,-280.5 172,-280.5 172,-27.5 0,-27.5"/>
<text text-anchor="middle" x="86" y="-265.3" font-family="arial" font-size="14.00">ESP8266</text>
<polyline fill="none" stroke="black" points="0,-257.5 172,-257.5 "/>
<text text-anchor="middle" x="86" y="-242.3" font-family="arial" font-size="14.00">9&#45;pin</text>
<polyline fill="none" stroke="black" points="0,-234.5 172,-234.5 "/>
<text text-anchor="middle" x="74" y="-219.3" font-family="arial" font-size="14.00">GND</text>
<polyline fill="none" stroke="black" points="0,-211.5 148,-211.5 "/>
<text text-anchor="middle" x="74" y="-196.3" font-family="arial" font-size="14.00">VCC (3v3)</text>
<polyline fill="none" stroke="black" points="0,-188.5 148,-188.5 "/>
<text text-anchor="middle" x="74" y="-173.3" font-family="arial" font-size="14.00">SDA (D1 / GPIO 4)</text>
<polyline fill="none" stroke="black" points="0,-165.5 148,-165.5 "/>
<text text-anchor="middle" x="74" y="-150.3" font-family="arial" font-size="14.00">SCL (D2 / GPIO 5)</text>
<polyline fill="none" stroke="black" points="0,-142.5 148,-142.5 "/>
<text text-anchor="middle" x="74" y="-127.3" font-family="arial" font-size="14.00">SCLK (D5 / GPIO 14)</text>
<polyline fill="none" stroke="black" points="0,-119.5 148,-119.5 "/>
<text text-anchor="middle" x="74" y="-104.3" font-family="arial" font-size="14.00">MOSI (D7 / GPIO 13)</text>
<polyline fill="none" stroke="black" points="0,-96.5 148,-96.5 "/>
<text text-anchor="middle" x="74" y="-81.3" font-family="arial" font-size="14.00">RST (D6 / GPIO 12)</text>
<polyline fill="none" stroke="black" points="0,-73.5 148,-73.5 "/>
<text text-anchor="middle" x="74" y="-58.3" font-family="arial" font-size="14.00">DC (D8 / GPIO 15)</text>
<polyline fill="none" stroke="black" points="0,-50.5 148,-50.5 "/>
<text text-anchor="middle" x="74" y="-35.3" font-family="arial" font-size="14.00">CS (D0 / GPIO 16)</text>
<polyline fill="none" stroke="black" points="148,-27.5 148,-234.5 "/>
<text text-anchor="middle" x="160" y="-219.3" font-family="arial" font-size="14.00">1</text>
<polyline fill="none" stroke="black" points="148,-211.5 172,-211.5 "/>
<text text-anchor="middle" x="160" y="-196.3" font-family="arial" font-size="14.00">2</text>
<polyline fill="none" stroke="black" points="148,-188.5 172,-188.5 "/>
<text text-anchor="middle" x="160" y="-173.3" font-family="arial" font-size="14.00">3</text>
<polyline fill="none" stroke="black" points="148,-165.5 172,-165.5 "/>
<text text-anchor="middle" x="160" y="-150.3" font-family="arial" font-size="14.00">4</text>
<polyline fill="none" stroke="black" points="148,-142.5 172,-142.5 "/>
<text text-anchor="middle" x="160" y="-127.3" font-family="arial" font-size="14.00">5</text>
<polyline fill="none" stroke="black" points="148,-119.5 172,-119.5 "/>
<text text-anchor="middle" x="160" y="-104.3" font-family="arial" font-size="14.00">6</text>
<polyline fill="none" stroke="black" points="148,-96.5 172,-96.5 "/>
<text text-anchor="middle" x="160" y="-81.3" font-family="arial" font-size="14.00">7</text>
<polyline fill="none" stroke="black" points="148,-73.5 172,-73.5 "/>
<text text-anchor="middle" x="160" y="-58.3" font-family="arial" font-size="14.00">8</text>
<polyline fill="none" stroke="black" points="148,-50.5 172,-50.5 "/>
<text text-anchor="middle" x="160" y="-35.3" font-family="arial" font-size="14.00">9</text>
</g>
<!-- Wire 1 -->
<g id="node4" class="node">
<title>Wire 1</title>
<polygon fill="none" stroke="black" points="493.5,-471 325.5,-471 325.5,-291 493.5,-291 493.5,-471"/>
<polygon fill="none" stroke="black" points="325.5,-448 325.5,-471 493.5,-471 493.5,-448 325.5,-448"/>
<text text-anchor="start" x="389.5" y="-455.8" font-family="arial" font-size="14.00">Wire 1</text>
<polygon fill="none" stroke="black" points="325.5,-425 325.5,-448 493.5,-448 493.5,-425 325.5,-425"/>
<text text-anchor="start" x="402" y="-432.8" font-family="arial" font-size="14.00">4x</text>
<text text-anchor="start" x="407.5" y="-413.8" font-family="arial" font-size="14.00"> </text>
<text text-anchor="start" x="327.5" y="-396.8" font-family="arial" font-size="14.00">ESP8266:1</text>
<text text-anchor="start" x="401" y="-396.8" font-family="arial" font-size="14.00">BK</text>
<text text-anchor="start" x="424.5" y="-396.8" font-family="arial" font-size="14.00">VL53L1X:5</text>
<polygon fill="#000000" stroke="transparent" points="325.5,-385 325.5,-391 493.5,-391 493.5,-385 325.5,-385"/>
<polyline fill="none" stroke="black" stroke-width="2" points="326.5,-386 492.5,-386 "/>
<polyline fill="none" stroke="black" stroke-width="2" points="492.5,-390 326.5,-390 "/>
<text text-anchor="start" x="327.5" y="-371.8" font-family="arial" font-size="14.00">ESP8266:2</text>
<text text-anchor="start" x="400.5" y="-371.8" font-family="arial" font-size="14.00">RD</text>
<text text-anchor="start" x="424.5" y="-371.8" font-family="arial" font-size="14.00">VL53L1X:6</text>
<polygon fill="#ff0000" stroke="transparent" stroke-width="2" points="325.5,-360 325.5,-366 493.5,-366 493.5,-360 325.5,-360"/>
<polyline fill="none" stroke="black" stroke-width="2" points="326.5,-361 492.5,-361 "/>
<polyline fill="none" stroke="black" stroke-width="2" points="492.5,-365 326.5,-365 "/>
<text text-anchor="start" x="327.5" y="-346.8" font-family="arial" font-size="14.00">ESP8266:3</text>
<text text-anchor="start" x="401" y="-346.8" font-family="arial" font-size="14.00">BU</text>
<text text-anchor="start" x="424.5" y="-346.8" font-family="arial" font-size="14.00">VL53L1X:4</text>
<polygon fill="#0066ff" stroke="transparent" stroke-width="2" points="325.5,-335 325.5,-341 493.5,-341 493.5,-335 325.5,-335"/>
<polyline fill="none" stroke="black" stroke-width="2" points="326.5,-336 492.5,-336 "/>
<polyline fill="none" stroke="black" stroke-width="2" points="492.5,-340 326.5,-340 "/>
<text text-anchor="start" x="327.5" y="-321.8" font-family="arial" font-size="14.00">ESP8266:4</text>
<text text-anchor="start" x="401" y="-321.8" font-family="arial" font-size="14.00">YE</text>
<text text-anchor="start" x="424.5" y="-321.8" font-family="arial" font-size="14.00">VL53L1X:3</text>
<polygon fill="#ffff00" stroke="transparent" stroke-width="2" points="325.5,-310 325.5,-316 493.5,-316 493.5,-310 325.5,-310"/>
<polyline fill="none" stroke="black" stroke-width="2" points="326.5,-311 492.5,-311 "/>
<polyline fill="none" stroke="black" stroke-width="2" points="492.5,-315 326.5,-315 "/>
<text text-anchor="start" x="360" y="-296.8" font-family="arial" font-size="14.00"> </text>
</g>
<!-- ESP8266&#45;&#45;Wire 1 -->
<g id="edge1" class="edge">
<title>ESP8266:e&#45;&#45;Wire 1:w</title>
<path fill="none" stroke="#000000" stroke-width="2" d="M172,-221C273.78,-223.55 226.56,-388.55 324.5,-386"/>
<path fill="none" stroke="#000000" stroke-width="2" d="M172,-223C271.86,-223 224.64,-388 324.5,-388"/>
<path fill="none" stroke="#000000" stroke-width="2" d="M172,-225C269.94,-222.45 222.72,-387.45 324.5,-390"/>
</g>
<!-- ESP8266&#45;&#45;Wire 1 -->
<g id="edge3" class="edge">
<title>ESP8266:e&#45;&#45;Wire 1:w</title>
<path fill="none" stroke="#000000" stroke-width="2" d="M172,-198C273.13,-200.54 227.22,-363.54 324.5,-361"/>
<path fill="none" stroke="#ff0000" stroke-width="2" d="M172,-200C271.21,-200 225.29,-363 324.5,-363"/>
<path fill="none" stroke="#000000" stroke-width="2" d="M172,-202C269.28,-199.46 223.37,-362.46 324.5,-365"/>
</g>
<!-- ESP8266&#45;&#45;Wire 1 -->
<g id="edge5" class="edge">
<title>ESP8266:e&#45;&#45;Wire 1:w</title>
<path fill="none" stroke="#000000" stroke-width="2" d="M172,-175C272.49,-177.53 227.87,-338.53 324.5,-336"/>
<path fill="none" stroke="#0066ff" stroke-width="2" d="M172,-177C270.56,-177 225.94,-338 324.5,-338"/>
<path fill="none" stroke="#000000" stroke-width="2" d="M172,-179C268.63,-176.47 224.01,-337.47 324.5,-340"/>
</g>
<!-- ESP8266&#45;&#45;Wire 1 -->
<g id="edge7" class="edge">
<title>ESP8266:e&#45;&#45;Wire 1:w</title>
<path fill="none" stroke="#000000" stroke-width="2" d="M172,-152C271.85,-154.53 228.51,-313.53 324.5,-311"/>
<path fill="none" stroke="#ffff00" stroke-width="2" d="M172,-154C269.92,-154 226.58,-313 324.5,-313"/>
<path fill="none" stroke="#000000" stroke-width="2" d="M172,-156C267.99,-153.47 224.65,-312.47 324.5,-315"/>
</g>
<!-- Wire 2 -->
<g id="node5" class="node">
<title>Wire 2</title>
<polygon fill="none" stroke="black" points="503,-266.5 316,-266.5 316,-11.5 503,-11.5 503,-266.5"/>
<polygon fill="none" stroke="black" points="316.5,-243 316.5,-266 503.5,-266 503.5,-243 316.5,-243"/>
<text text-anchor="start" x="390" y="-250.8" font-family="arial" font-size="14.00">Wire 2</text>
<polygon fill="none" stroke="black" points="316.5,-220 316.5,-243 503.5,-243 503.5,-220 316.5,-220"/>
<text text-anchor="start" x="402.5" y="-227.8" font-family="arial" font-size="14.00">7x</text>
<text text-anchor="start" x="408" y="-208.8" font-family="arial" font-size="14.00"> </text>
<text text-anchor="start" x="318.5" y="-191.8" font-family="arial" font-size="14.00">ESP8266:1</text>
<text text-anchor="start" x="393.5" y="-191.8" font-family="arial" font-size="14.00">BN</text>
<text text-anchor="start" x="418.5" y="-191.8" font-family="arial" font-size="14.00">RGB OLED:2</text>
<polygon fill="#666600" stroke="transparent" points="316.5,-180 316.5,-186 503.5,-186 503.5,-180 316.5,-180"/>
<polyline fill="none" stroke="black" stroke-width="2" points="317.5,-181 502.5,-181 "/>
<polyline fill="none" stroke="black" stroke-width="2" points="502.5,-185 317.5,-185 "/>
<text text-anchor="start" x="318.5" y="-166.8" font-family="arial" font-size="14.00">ESP8266:2</text>
<text text-anchor="start" x="393" y="-166.8" font-family="arial" font-size="14.00">RD</text>
<text text-anchor="start" x="418.5" y="-166.8" font-family="arial" font-size="14.00">RGB OLED:1</text>
<polygon fill="#ff0000" stroke="transparent" stroke-width="2" points="316.5,-155 316.5,-161 503.5,-161 503.5,-155 316.5,-155"/>
<polyline fill="none" stroke="black" stroke-width="2" points="317.5,-156 502.5,-156 "/>
<polyline fill="none" stroke="black" stroke-width="2" points="502.5,-160 317.5,-160 "/>
<text text-anchor="start" x="318.5" y="-141.8" font-family="arial" font-size="14.00">ESP8266:5</text>
<text text-anchor="start" x="391.5" y="-141.8" font-family="arial" font-size="14.00">OG</text>
<text text-anchor="start" x="418.5" y="-141.8" font-family="arial" font-size="14.00">RGB OLED:5</text>
<polygon fill="#ff8000" stroke="transparent" stroke-width="2" points="316.5,-130 316.5,-136 503.5,-136 503.5,-130 316.5,-130"/>
<polyline fill="none" stroke="black" stroke-width="2" points="317.5,-131 502.5,-131 "/>
<polyline fill="none" stroke="black" stroke-width="2" points="502.5,-135 317.5,-135 "/>
<text text-anchor="start" x="318.5" y="-116.8" font-family="arial" font-size="14.00">ESP8266:6</text>
<text text-anchor="start" x="393.5" y="-116.8" font-family="arial" font-size="14.00">YE</text>
<text text-anchor="start" x="418.5" y="-116.8" font-family="arial" font-size="14.00">RGB OLED:4</text>
<polygon fill="#ffff00" stroke="transparent" stroke-width="2" points="316.5,-105 316.5,-111 503.5,-111 503.5,-105 316.5,-105"/>
<polyline fill="none" stroke="black" stroke-width="2" points="317.5,-106 502.5,-106 "/>
<polyline fill="none" stroke="black" stroke-width="2" points="502.5,-110 317.5,-110 "/>
<text text-anchor="start" x="318.5" y="-91.8" font-family="arial" font-size="14.00">ESP8266:7</text>
<text text-anchor="start" x="392" y="-91.8" font-family="arial" font-size="14.00">GN</text>
<text text-anchor="start" x="418.5" y="-91.8" font-family="arial" font-size="14.00">RGB OLED:8</text>
<polygon fill="#00ff00" stroke="transparent" stroke-width="2" points="316.5,-80 316.5,-86 503.5,-86 503.5,-80 316.5,-80"/>
<polyline fill="none" stroke="black" stroke-width="2" points="317.5,-81 502.5,-81 "/>
<polyline fill="none" stroke="black" stroke-width="2" points="502.5,-85 317.5,-85 "/>
<text text-anchor="start" x="318.5" y="-66.8" font-family="arial" font-size="14.00">ESP8266:8</text>
<text text-anchor="start" x="393.5" y="-66.8" font-family="arial" font-size="14.00">BU</text>
<text text-anchor="start" x="418.5" y="-66.8" font-family="arial" font-size="14.00">RGB OLED:7</text>
<polygon fill="#0066ff" stroke="transparent" stroke-width="2" points="316.5,-55 316.5,-61 503.5,-61 503.5,-55 316.5,-55"/>
<polyline fill="none" stroke="black" stroke-width="2" points="317.5,-56 502.5,-56 "/>
<polyline fill="none" stroke="black" stroke-width="2" points="502.5,-60 317.5,-60 "/>
<text text-anchor="start" x="318.5" y="-41.8" font-family="arial" font-size="14.00">ESP8266:9</text>
<text text-anchor="start" x="394" y="-41.8" font-family="arial" font-size="14.00">VT</text>
<text text-anchor="start" x="418.5" y="-41.8" font-family="arial" font-size="14.00">RGB OLED:6</text>
<polygon fill="#8000ff" stroke="transparent" stroke-width="2" points="316.5,-30 316.5,-36 503.5,-36 503.5,-30 316.5,-30"/>
<polyline fill="none" stroke="black" stroke-width="2" points="317.5,-31 502.5,-31 "/>
<polyline fill="none" stroke="black" stroke-width="2" points="502.5,-35 317.5,-35 "/>
<text text-anchor="start" x="351" y="-16.8" font-family="arial" font-size="14.00"> </text>
</g>
<!-- ESP8266&#45;&#45;Wire 2 -->
<g id="edge9" class="edge">
<title>ESP8266:e&#45;&#45;Wire 2:w</title>
<path fill="none" stroke="#000000" stroke-width="2" d="M172,-221C236.5,-222.46 247.65,-182.46 316,-181"/>
<path fill="none" stroke="#666600" stroke-width="2" d="M172,-223C238.42,-223 249.58,-183 316,-183"/>
<path fill="none" stroke="#000000" stroke-width="2" d="M172,-225C240.35,-223.54 251.5,-183.54 316,-185"/>
</g>
<!-- ESP8266&#45;&#45;Wire 2 -->
<g id="edge11" class="edge">
<title>ESP8266:e&#45;&#45;Wire 2:w</title>
<path fill="none" stroke="#000000" stroke-width="2" d="M172,-198C236.73,-199.51 247.39,-157.51 316,-156"/>
<path fill="none" stroke="#ff0000" stroke-width="2" d="M172,-200C238.67,-200 249.33,-158 316,-158"/>
<path fill="none" stroke="#000000" stroke-width="2" d="M172,-202C240.61,-200.49 251.27,-158.49 316,-160"/>
</g>
<!-- ESP8266&#45;&#45;Wire 2 -->
<g id="edge13" class="edge">
<title>ESP8266:e&#45;&#45;Wire 2:w</title>
<path fill="none" stroke="#000000" stroke-width="2" d="M172,-129C236.25,-129.02 252.24,-131.02 316,-131"/>
<path fill="none" stroke="#ff8000" stroke-width="2" d="M172,-131C236.01,-131 251.99,-133 316,-133"/>
<path fill="none" stroke="#000000" stroke-width="2" d="M172,-133C235.76,-132.98 251.75,-134.98 316,-135"/>
</g>
<!-- ESP8266&#45;&#45;Wire 2 -->
<g id="edge15" class="edge">
<title>ESP8266:e&#45;&#45;Wire 2:w</title>
<path fill="none" stroke="#000000" stroke-width="2" d="M172,-106C236,-106 252,-106 316,-106"/>
<path fill="none" stroke="#ffff00" stroke-width="2" d="M172,-108C236,-108 252,-108 316,-108"/>
<path fill="none" stroke="#000000" stroke-width="2" d="M172,-110C236,-110 252,-110 316,-110"/>
</g>
<!-- ESP8266&#45;&#45;Wire 2 -->
<g id="edge17" class="edge">
<title>ESP8266:e&#45;&#45;Wire 2:w</title>
<path fill="none" stroke="#000000" stroke-width="2" d="M172,-83C235.76,-83.02 251.75,-81.02 316,-81"/>
<path fill="none" stroke="#00ff00" stroke-width="2" d="M172,-85C236.01,-85 251.99,-83 316,-83"/>
<path fill="none" stroke="#000000" stroke-width="2" d="M172,-87C236.25,-86.98 252.24,-84.98 316,-85"/>
</g>
<!-- ESP8266&#45;&#45;Wire 2 -->
<g id="edge19" class="edge">
<title>ESP8266:e&#45;&#45;Wire 2:w</title>
<path fill="none" stroke="#000000" stroke-width="2" d="M172,-60C235.54,-60.06 251.49,-56.06 316,-56"/>
<path fill="none" stroke="#0066ff" stroke-width="2" d="M172,-62C236.02,-62 251.98,-58 316,-58"/>
<path fill="none" stroke="#000000" stroke-width="2" d="M172,-64C236.51,-63.94 252.46,-59.94 316,-60"/>
</g>
<!-- ESP8266&#45;&#45;Wire 2 -->
<g id="edge21" class="edge">
<title>ESP8266:e&#45;&#45;Wire 2:w</title>
<path fill="none" stroke="#000000" stroke-width="2" d="M172,-37C235.35,-37.13 251.24,-31.13 316,-31"/>
<path fill="none" stroke="#8000ff" stroke-width="2" d="M172,-39C236.06,-39 251.94,-33 316,-33"/>
<path fill="none" stroke="#000000" stroke-width="2" d="M172,-41C236.76,-40.87 252.65,-34.87 316,-35"/>
</g>
<!-- VL53L1X -->
<g id="node2" class="node">
<title>VL53L1X</title>
<polygon fill="white" stroke="black" points="647,-303.5 647,-510.5 769,-510.5 769,-303.5 647,-303.5"/>
<text text-anchor="middle" x="708" y="-495.3" font-family="arial" font-size="14.00">VL53L1X</text>
<polyline fill="none" stroke="black" points="647,-487.5 769,-487.5 "/>
<text text-anchor="middle" x="708" y="-472.3" font-family="arial" font-size="14.00">6&#45;pin</text>
<polyline fill="none" stroke="black" points="647,-464.5 769,-464.5 "/>
<text text-anchor="middle" x="670" y="-449.3" font-family="arial" font-size="14.00">1</text>
<polyline fill="none" stroke="black" points="647,-441.5 693,-441.5 "/>
<text text-anchor="middle" x="670" y="-426.3" font-family="arial" font-size="14.00">2</text>
<polyline fill="none" stroke="black" points="647,-418.5 693,-418.5 "/>
<text text-anchor="middle" x="670" y="-403.3" font-family="arial" font-size="14.00">3</text>
<polyline fill="none" stroke="black" points="647,-395.5 693,-395.5 "/>
<text text-anchor="middle" x="670" y="-380.3" font-family="arial" font-size="14.00">4</text>
<polyline fill="none" stroke="black" points="647,-372.5 693,-372.5 "/>
<text text-anchor="middle" x="670" y="-357.3" font-family="arial" font-size="14.00">5</text>
<polyline fill="none" stroke="black" points="647,-349.5 693,-349.5 "/>
<text text-anchor="middle" x="670" y="-334.3" font-family="arial" font-size="14.00">6</text>
<polyline fill="none" stroke="black" points="693,-326.5 693,-464.5 "/>
<text text-anchor="middle" x="731" y="-449.3" font-family="arial" font-size="14.00">INT</text>
<polyline fill="none" stroke="black" points="693,-441.5 769,-441.5 "/>
<text text-anchor="middle" x="731" y="-426.3" font-family="arial" font-size="14.00">SHUT</text>
<polyline fill="none" stroke="black" points="693,-418.5 769,-418.5 "/>
<text text-anchor="middle" x="731" y="-403.3" font-family="arial" font-size="14.00">SCL</text>
<polyline fill="none" stroke="black" points="693,-395.5 769,-395.5 "/>
<text text-anchor="middle" x="731" y="-380.3" font-family="arial" font-size="14.00">SDA</text>
<polyline fill="none" stroke="black" points="693,-372.5 769,-372.5 "/>
<text text-anchor="middle" x="731" y="-357.3" font-family="arial" font-size="14.00">GND</text>
<polyline fill="none" stroke="black" points="693,-349.5 769,-349.5 "/>
<text text-anchor="middle" x="731" y="-334.3" font-family="arial" font-size="14.00">VCC</text>
<polyline fill="none" stroke="black" points="647,-326.5 769,-326.5 "/>
<text text-anchor="middle" x="708" y="-311.3" font-family="arial" font-size="14.00">I2C address 0x29</text>
</g>
<!-- RGB OLED -->
<g id="node3" class="node">
<title>RGB OLED</title>
<polygon fill="white" stroke="black" points="647.5,-0.5 647.5,-253.5 768.5,-253.5 768.5,-0.5 647.5,-0.5"/>
<text text-anchor="middle" x="708" y="-238.3" font-family="arial" font-size="14.00">RGB OLED</text>
<polyline fill="none" stroke="black" points="647.5,-230.5 768.5,-230.5 "/>
<text text-anchor="middle" x="684.5" y="-215.3" font-family="arial" font-size="14.00">SSD1331</text>
<polyline fill="none" stroke="black" points="721.5,-207.5 721.5,-230.5 "/>
<text text-anchor="middle" x="745" y="-215.3" font-family="arial" font-size="14.00">8&#45;pin</text>
<polyline fill="none" stroke="black" points="647.5,-207.5 768.5,-207.5 "/>
<text text-anchor="middle" x="666" y="-192.3" font-family="arial" font-size="14.00">1</text>
<polyline fill="none" stroke="black" points="647.5,-184.5 684.5,-184.5 "/>
<text text-anchor="middle" x="666" y="-169.3" font-family="arial" font-size="14.00">2</text>
<polyline fill="none" stroke="black" points="647.5,-161.5 684.5,-161.5 "/>
<text text-anchor="middle" x="666" y="-146.3" font-family="arial" font-size="14.00">3</text>
<polyline fill="none" stroke="black" points="647.5,-138.5 684.5,-138.5 "/>
<text text-anchor="middle" x="666" y="-123.3" font-family="arial" font-size="14.00">4</text>
<polyline fill="none" stroke="black" points="647.5,-115.5 684.5,-115.5 "/>
<text text-anchor="middle" x="666" y="-100.3" font-family="arial" font-size="14.00">5</text>
<polyline fill="none" stroke="black" points="647.5,-92.5 684.5,-92.5 "/>
<text text-anchor="middle" x="666" y="-77.3" font-family="arial" font-size="14.00">6</text>
<polyline fill="none" stroke="black" points="647.5,-69.5 684.5,-69.5 "/>
<text text-anchor="middle" x="666" y="-54.3" font-family="arial" font-size="14.00">7</text>
<polyline fill="none" stroke="black" points="647.5,-46.5 684.5,-46.5 "/>
<text text-anchor="middle" x="666" y="-31.3" font-family="arial" font-size="14.00">8</text>
<polyline fill="none" stroke="black" points="684.5,-23.5 684.5,-207.5 "/>
<text text-anchor="middle" x="726.5" y="-192.3" font-family="arial" font-size="14.00">VCC</text>
<polyline fill="none" stroke="black" points="684.5,-184.5 768.5,-184.5 "/>
<text text-anchor="middle" x="726.5" y="-169.3" font-family="arial" font-size="14.00">GND</text>
<polyline fill="none" stroke="black" points="684.5,-161.5 768.5,-161.5 "/>
<text text-anchor="middle" x="726.5" y="-146.3" font-family="arial" font-size="14.00">NC</text>
<polyline fill="none" stroke="black" points="684.5,-138.5 768.5,-138.5 "/>
<text text-anchor="middle" x="726.5" y="-123.3" font-family="arial" font-size="14.00">DIN/SDA</text>
<polyline fill="none" stroke="black" points="684.5,-115.5 768.5,-115.5 "/>
<text text-anchor="middle" x="726.5" y="-100.3" font-family="arial" font-size="14.00">CLK</text>
<polyline fill="none" stroke="black" points="684.5,-92.5 768.5,-92.5 "/>
<text text-anchor="middle" x="726.5" y="-77.3" font-family="arial" font-size="14.00">CS</text>
<polyline fill="none" stroke="black" points="684.5,-69.5 768.5,-69.5 "/>
<text text-anchor="middle" x="726.5" y="-54.3" font-family="arial" font-size="14.00">D/C</text>
<polyline fill="none" stroke="black" points="684.5,-46.5 768.5,-46.5 "/>
<text text-anchor="middle" x="726.5" y="-31.3" font-family="arial" font-size="14.00">RES</text>
<polyline fill="none" stroke="black" points="647.5,-23.5 768.5,-23.5 "/>
<text text-anchor="middle" x="708" y="-8.3" font-family="arial" font-size="14.00">HSPI</text>
</g>
<!-- Wire 1&#45;&#45;VL53L1X -->
<g id="edge2" class="edge">
<title>Wire 1:e&#45;&#45;VL53L1X:w</title>
<path fill="none" stroke="#000000" stroke-width="2" d="M494.5,-386C561.58,-387.04 576.42,-360.04 647,-359"/>
<path fill="none" stroke="#000000" stroke-width="2" d="M494.5,-388C563.33,-388 578.17,-361 647,-361"/>
<path fill="none" stroke="#000000" stroke-width="2" d="M494.5,-390C565.08,-388.96 579.92,-361.96 647,-363"/>
</g>
<!-- Wire 1&#45;&#45;VL53L1X -->
<g id="edge4" class="edge">
<title>Wire 1:e&#45;&#45;VL53L1X:w</title>
<path fill="none" stroke="#000000" stroke-width="2" d="M494.5,-361C561.47,-361.96 576.61,-336.96 647,-336"/>
<path fill="none" stroke="#ff0000" stroke-width="2" d="M494.5,-363C563.18,-363 578.32,-338 647,-338"/>
<path fill="none" stroke="#000000" stroke-width="2" d="M494.5,-365C564.89,-364.04 580.03,-339.04 647,-340"/>
</g>
<!-- Wire 1&#45;&#45;VL53L1X -->
<g id="edge6" class="edge">
<title>Wire 1:e&#45;&#45;VL53L1X:w</title>
<path fill="none" stroke="#000000" stroke-width="2" d="M494.5,-336C567.24,-337.54 578.15,-383.54 647,-382"/>
<path fill="none" stroke="#0066ff" stroke-width="2" d="M494.5,-338C565.29,-338 576.21,-384 647,-384"/>
<path fill="none" stroke="#000000" stroke-width="2" d="M494.5,-340C563.35,-338.46 574.26,-384.46 647,-386"/>
</g>
<!-- Wire 1&#45;&#45;VL53L1X -->
<g id="edge8" class="edge">
<title>Wire 1:e&#45;&#45;VL53L1X:w</title>
<path fill="none" stroke="#000000" stroke-width="2" d="M494.5,-311C576.11,-313.14 569.38,-407.14 647,-405"/>
<path fill="none" stroke="#ffff00" stroke-width="2" d="M494.5,-313C574.12,-313 567.38,-407 647,-407"/>
<path fill="none" stroke="#000000" stroke-width="2" d="M494.5,-315C572.12,-312.86 565.39,-406.86 647,-409"/>
</g>
<!-- Wire 2&#45;&#45;RGB OLED -->
<g id="edge10" class="edge">
<title>Wire 2:e&#45;&#45;RGB OLED:w</title>
<path fill="none" stroke="#000000" stroke-width="2" d="M503,-181C566.08,-181.31 581.77,-171.31 647,-171"/>
<path fill="none" stroke="#666600" stroke-width="2" d="M503,-183C567.15,-183 582.85,-173 647,-173"/>
<path fill="none" stroke="#000000" stroke-width="2" d="M503,-185C568.23,-184.69 583.92,-174.69 647,-175"/>
</g>
<!-- Wire 2&#45;&#45;RGB OLED -->
<g id="edge12" class="edge">
<title>Wire 2:e&#45;&#45;RGB OLED:w</title>
<path fill="none" stroke="#000000" stroke-width="2" d="M503,-156C571.1,-157.42 582.72,-195.42 647,-194"/>
<path fill="none" stroke="#ff0000" stroke-width="2" d="M503,-158C569.19,-158 580.81,-196 647,-196"/>
<path fill="none" stroke="#000000" stroke-width="2" d="M503,-160C567.28,-158.58 578.9,-196.58 647,-198"/>
</g>
<!-- Wire 2&#45;&#45;RGB OLED -->
<g id="edge14" class="edge">
<title>Wire 2:e&#45;&#45;RGB OLED:w</title>
<path fill="none" stroke="#000000" stroke-width="2" d="M503,-131C566.47,-132.16 579.9,-103.16 647,-102"/>
<path fill="none" stroke="#ff8000" stroke-width="2" d="M503,-133C568.28,-133 581.72,-104 647,-104"/>
<path fill="none" stroke="#000000" stroke-width="2" d="M503,-135C570.1,-133.84 583.53,-104.84 647,-106"/>
</g>
<!-- Wire 2&#45;&#45;RGB OLED -->
<g id="edge16" class="edge">
<title>Wire 2:e&#45;&#45;RGB OLED:w</title>
<path fill="none" stroke="#000000" stroke-width="2" d="M503,-106C569.13,-106.77 584.02,-125.77 647,-125"/>
<path fill="none" stroke="#ffff00" stroke-width="2" d="M503,-108C567.55,-108 582.45,-127 647,-127"/>
<path fill="none" stroke="#000000" stroke-width="2" d="M503,-110C565.98,-109.23 580.87,-128.23 647,-129"/>
</g>
<!-- Wire 2&#45;&#45;RGB OLED -->
<g id="edge18" class="edge">
<title>Wire 2:e&#45;&#45;RGB OLED:w</title>
<path fill="none" stroke="#000000" stroke-width="2" d="M503,-81C568.5,-82.63 577.57,-34.63 647,-33"/>
<path fill="none" stroke="#00ff00" stroke-width="2" d="M503,-83C570.46,-83 579.54,-35 647,-35"/>
<path fill="none" stroke="#000000" stroke-width="2" d="M503,-85C572.43,-83.37 581.5,-35.37 647,-37"/>
</g>
<!-- Wire 2&#45;&#45;RGB OLED -->
<g id="edge20" class="edge">
<title>Wire 2:e&#45;&#45;RGB OLED:w</title>
<path fill="none" stroke="#000000" stroke-width="2" d="M503,-56C567,-56 583,-56 647,-56"/>
<path fill="none" stroke="#0066ff" stroke-width="2" d="M503,-58C567,-58 583,-58 647,-58"/>
<path fill="none" stroke="#000000" stroke-width="2" d="M503,-60C567,-60 583,-60 647,-60"/>
</g>
<!-- Wire 2&#45;&#45;RGB OLED -->
<g id="edge22" class="edge">
<title>Wire 2:e&#45;&#45;RGB OLED:w</title>
<path fill="none" stroke="#000000" stroke-width="2" d="M503,-31C572.43,-32.63 581.5,-80.63 647,-79"/>
<path fill="none" stroke="#8000ff" stroke-width="2" d="M503,-33C570.46,-33 579.54,-81 647,-81"/>
<path fill="none" stroke="#000000" stroke-width="2" d="M503,-35C568.5,-33.37 577.57,-81.37 647,-83"/>
</g>
</g>
</svg>
